#!OML:ASF F:\VICON\USERDATA\INSTALL\rory3\rory3.ASF
:FULLY-SPECIFIED
:DEGREES
29
root -1.0307168400658457 17.924662550516015 1.0847138963131604 5.47793214140918 4.454194429857828 2.524046004206894
lfemur -13.129210815920338 -1.2884817899851284 -27.99290127993657
ltibia 4.983431387270365
lfoot -21.647087814793743 -3.856143065923023
ltoes -6.103229025490841
rfemur -33.175256583103256 -6.4557269841999805 19.474849535416972
rtibia 113.17098626030884
rfoot 30.283526209935193 -6.860056222936656
rtoes 43.162342645663365
lowerback 1.0 1.9852427070151761 -4.1238369633037575
upperback -0.19275131775429016 1.8537557342476134 -1.3326212335258978
thorax -8.391431803660653 0.9891825454503529 -0.20071769570551795
lowerneck -22.055061592540287 -6.383074507503439 -1.3833755578433715
upperneck 14.898359871342016 -9.761708089645545 5.184998610490548
head 8.689092967662166 -3.8879889571981696 0.7637227297389434
lclavicle -2.2366223531330758e-14 4.342944696995014e-15
lhumerus -52.1603838450764 -6.587730202901682 90.6287456371292
lradius 122.14743407142292
lwrist 29.6250946617413
lhand -24.5933095301486 -3.8755929576339145
lfingers nan
lthumb 2.059031850189542 26.482356660587378
rclavicle -2.2000288565713785e-14 5.680030531585877e-15
rhumerus -45.97108427389097 7.499308670198651 -95.15233903607624
rradius 88.41440748433793
rwrist -18.032849588940195
rhand -22.22070518484172 1.0
rfingers nan
rthumb 4.231923040304002 9.652220922570198
30
root -1.016457508933343 17.99732786582744 1.5464745946734935 5.487156505026507 4.007343689088113 2.2723527482116617
lfemur -11.717237614355911 -1.1401793962148217 -28.09211393408939
ltibia 2.5863848452664797
lfoot -21.441854717733385 -2.937325536871482
ltoes -7.3018036772943855
rfemur -34.49173719642947 -6.867575301554293 19.499613556571596
rtibia 116.61551136548152
rfoot 28.43195895776979 -7.3711917991286695
rtoes 38.28330551264225
lowerback 1.0 1.9790071408589387 -4.125459165161698
upperback -0.06072821804345241 1.89763818166527 -1.3146731206875297
thorax -8.39026328159713 0.9988317771277462 -0.16202113450877037
lowerneck -22.11731548559509 -6.259415236063617 -1.3611280868014106
upperneck 14.223671210605302 -9.599810370113472 5.109000782581989
head 8.491332196015009 -3.7670488048011164 0.7524122005567822
lclavicle 4.561349783165294e-14 4.3920027188369835e-14
lhumerus -52.7283836065816 -6.147196030827392 90.58752072413563
lradius 123.16701867968244
lwrist 29.33357252516918
lhand -24.27679708176116 -4.163261126941288
lfingers nan
lthumb 2.3985175901139657 26.228922459765528
rclavicle 4.5098124665492225e-14 4.541348289476438e-14
rhumerus -46.150201097334964 7.911306227039018 -95.41607115620727
rradius 87.4151503821966
rwrist -16.814563641377138
rhand -22.59421696964911 1.0
rfingers nan
rthumb 3.874554922575278 9.567023810263583
31
root -1.0019664903156418 18.06379143637087 1.9959323584560158 5.325103305423859 3.5192661269788847 2.1775480667561586
lfemur -9.830368700534166 -0.8622971252454019 -28.62819531566428
ltibia 1.1352498664498967
lfoot -22.404664161725016 -2.267053261185289
ltoes -10.904306303687434
rfemur -35.39950302144572 -7.428997609730565 19.160552908342908
rtibia 120.40753706577058
rfoot 28.68874130183434 -7.887069195393868
rtoes 35.338636125111066
lowerback 1.0 2.0104919145777043 -4.456601762283997
upperback 0.19420756256441768 1.9420791507572828 -1.3835977589299517
thorax -8.246839581952628 0.9914323534698997 -0.13678174962563405
lowerneck -21.75160697909214 -6.246426395878894 -1.326461155257113
upperneck 13.46397320480921 -9.544752741261364 5.120685667180742
head 8.236023001495772 -3.723002432159584 0.7589017119072268
lclavicle -1.035390230807626e-14 -1.648297154957548e-14
lhumerus -53.061624930912934 -6.101959414592092 90.73117600332513
lradius 124.03128004681837
lwrist 29.273065658760625
lhand -24.019821444490812 -4.323070898046652
lfingers nan
lthumb 2.6655622445542333 26.117469577733438
rclavicle -1.1956271225777964e-14 -1.545429486038491e-14
rhumerus -46.461908587308805 8.033563051933035 -95.62352566884708
rradius 86.28877851918625
rwrist -16.342204796760186
rhand -22.407197271465165 1.0
rfingers nan
rthumb 4.018164014186962 12.194126728858581
32
root -0.9850473164994269 18.106368406583854 2.9126511669823794 5.193967215637869 3.0216241928255068 2.235941721842295
lfemur -8.097888866672946 -0.35125471381552664 -29.30522983770857
ltibia 0.30466599821637175
lfoot -22.424378263061172 -2.0132828575628015
ltoes -11.607160540932595
rfemur -36.397158550684495 -8.039044243050414 18.751984819478075
rtibia 124.55335082070093
rfoot 28.029807268044493 -8.8507707631975
rtoes 38.84324922610284
lowerback 1.0 2.03591708705906 -4.656818998366702
upperback 0.48284449246371813 1.9776825361836174 -1.473704419910911
thorax -7.859039500906489 0.9992618408632179 -0.17270912862147653
lowerneck -21.548509367435102 -6.210998209159881 -1.2532810903908007
upperneck 12.65017696269933 -9.46187180994438 5.171645315173068
head 7.979225796955688 -3.690484994184627 0.7690222194732508
lclavicle -2.494596554469659e-14 5.7877107902914086e-15
lhumerus -53.09575485690975 -6.194464261321187 90.94494581105891
lradius 124.79258563448803
lwrist 29.346819767897884
lhand -24.5966497014724 -4.0717461531314925
lfingers nan
lthumb 2.1162346523074547 26.421526070073792
rclavicle -2.6146232554482654e-14 7.776333005284986e-15
rhumerus -46.77958826730051 7.6593873882251104 -95.71127055620111
rradius 84.70417396376024
rwrist -15.044405278585845
rhand -22.25757437012095 1.0
rfingers nan
rthumb 4.166510228342778 15.356658071950577
